<?xml version="1.0" encoding="utf-8"?><!DOCTYPE svg PUBLIC "-//W3C//DTD SVG 1.1//EN" "http://www.w3.org/Graphics/SVG/1.1/DTD/svg11.dtd"><svg xmlns="http://www.w3.org/2000/svg" viewBox="0 0 125 125" shape-rendering="crispEdges"><path fill="#ffffff" d="M0 0h125v125H0z"/><path stroke="#000000" d="M4 4.5h7m2 0h2m1 0h1m2 0h3m4 0h1m3 0h1m1 0h2m2 0h2m1 0h4m1 0h3m1 0h2m1 0h2m3 0h1m1 0h3m1 0h6m3 0h3m1 0h2m3 0h1m1 0h1m5 0h1m4 0h1m2 0h1m4 0h1m1 0h8m3 0h7M4 5.5h1m5 0h1m1 0h1m4 0h3m4 0h4m1 0h1m1 0h2m1 0h1m1 0h2m1 0h3m1 0h2m1 0h3m4 0h1m1 0h4m1 0h2m3 0h1m1 0h4m1 0h1m2 0h1m1 0h1m3 0h4m4 0h1m2 0h1m1 0h3m2 0h2m2 0h4m1 0h1m3 0h1m1 0h1m5 0h1M4 6.5h1m1 0h3m1 0h1m3 0h2m2 0h7m2 0h3m3 0h1m3 0h4m1 0h1m2 0h1m1 0h1m2 0h1m1 0h1m1 0h1m2 0h2m3 0h5m4 0h1m2 0h4m5 0h1m2 0h3m1 0h1m2 0h1m1 0h1m1 0h4m1 0h2m5 0h4m1 0h1m1 0h3m1 0h1M4 7.5h1m1 0h3m1 0h1m1 0h1m2 0h1m1 0h2m2 0h2m2 0h1m1 0h1m1 0h2m2 0h3m2 0h1m1 0h5m5 0h1m1 0h8m7 0h3m1 0h3m1 0h2m2 0h1m2 0h2m4 0h2m2 0h3m1 0h3m1 0h2m1 0h1m2 0h1m1 0h1m5 0h1m1 0h3m1 0h1M4 8.5h1m1 0h3m1 0h1m3 0h1m2 0h2m2 0h1m1 0h3m1 0h2m1 0h11m1 0h2m2 0h1m2 0h2m5 0h2m1 0h8m1 0h4m1 0h4m1 0h4m1 0h1m1 0h7m3 0h2m1 0h1m2 0h1m1 0h2m2 0h4m3 0h1m1 0h3m1 0h1M4 9.5h1m5 0h1m1 0h1m2 0h1m3 0h2m6 0h3m3 0h2m3 0h2m1 0h4m1 0h1m1 0h2m1 0h1m3 0h2m1 0h3m3 0h2m1 0h4m1 0h2m3 0h1m2 0h7m3 0h3m1 0h3m4 0h1m2 0h3m1 0h1m1 0h2m2 0h1m5 0h1M4 10.5h7m1 0h1m1 0h1m1 0h1m1 0h1m1 0h1m1 0h1m1 0h1m1 0h1m1 0h1m1 0h1m1 0h1m1 0h1m1 0h1m1 0h1m1 0h1m1 0h1m1 0h1m1 0h1m1 0h1m1 0h1m1 0h1m1 0h1m1 0h1m1 0h1m1 0h1m1 0h1m1 0h1m1 0h1m1 0h1m1 0h1m1 0h1m1 0h1m1 0h1m1 0h1m1 0h1m1 0h1m1 0h1m1 0h1m1 0h1m1 0h1m1 0h1m1 0h1m1 0h1m1 0h1m1 0h1m1 0h1m1 0h1m1 0h1m1 0h1m1 0h1m1 0h1m1 0h7M14 11.5h3m2 0h4m1 0h1m1 0h3m1 0h2m2 0h1m3 0h1m1 0h1m4 0h1m1 0h1m1 0h7m1 0h1m2 0h1m3 0h3m4 0h1m1 0h2m1 0h1m1 0h2m5 0h2m3 0h1m4 0h1m1 0h2m1 0h3m7 0h1M4 12.5h5m1 0h6m1 0h1m4 0h2m3 0h1m1 0h1m4 0h5m1 0h1m1 0h1m1 0h1m1 0h1m2 0h1m3 0h1m1 0h1m1 0h1m1 0h6m7 0h8m2 0h3m1 0h5m1 0h2m1 0h4m1 0h2m1 0h4m3 0h4m1 0h1m1 0h1m1 0h1M6 13.5h3m2 0h1m3 0h2m1 0h2m5 0h4m2 0h1m1 0h1m1 0h5m1 0h1m2 0h2m4 0h2m3 0h3m1 0h1m1 0h2m1 0h3m2 0h1m3 0h1m5 0h1m1 0h1m1 0h1m1 0h2m1 0h2m1 0h1m2 0h1m4 0h2m6 0h3m1 0h1m1 0h1m1 0h6M5 14.5h2m1 0h3m1 0h2m1 0h1m6 0h5m2 0h1m1 0h2m1 0h1m1 0h1m2 0h1m1 0h1m3 0h2m1 0h1m2 0h1m1 0h1m1 0h5m1 0h1m1 0h1m1 0h1m1 0h4m1 0h1m6 0h2m1 0h2m3 0h1m1 0h1m2 0h3m1 0h1m2 0h1m1 0h1m3 0h2m6 0h2m2 0h3M5 15.5h2m1 0h2m5 0h2m2 0h2m1 0h3m5 0h1m4 0h1m1 0h2m1 0h1m1 0h1m4 0h1m3 0h3m1 0h1m1 0h1m1 0h1m1 0h4m1 0h2m1 0h3m3 0h2m1 0h1m4 0h1m2 0h1m1 0h1m1 0h1m4 0h1m1 0h4m6 0h1m1 0h2m2 0h1m2 0h5M4 16.5h3m2 0h3m1 0h1m1 0h2m1 0h1m2 0h2m1 0h1m3 0h1m2 0h7m1 0h1m3 0h1m1 0h1m5 0h1m1 0h3m1 0h1m2 0h1m2 0h2m1 0h2m3 0h1m1 0h1m2 0h1m5 0h1m4 0h1m1 0h2m1 0h3m3 0h3m2 0h1m1 0h1m2 0h2m1 0h2m1 0h2M5 17.5h3m1 0h1m1 0h1m3 0h1m2 0h2m2 0h2m1 0h3m1 0h1m1 0h1m1 0h1m1 0h2m1 0h3m3 0h2m1 0h1m2 0h2m3 0h2m1 0h2m1 0h1m1 0h3m2 0h2m1 0h1m2 0h3m1 0h1m4 0h3m1 0h1m1 0h1m1 0h2m1 0h2m1 0h3m1 0h1m2 0h2m4 0h4m2 0h5M5 18.5h2m3 0h2m1 0h1m1 0h3m5 0h2m1 0h1m1 0h2m2 0h1m1 0h1m1 0h1m8 0h2m1 0h2m1 0h1m1 0h1m1 0h4m6 0h1m1 0h2m1 0h1m1 0h1m2 0h1m1 0h1m1 0h8m4 0h2m1 0h1m1 0h1m4 0h1m3 0h4m2 0h1m5 0h2M4 19.5h2m1 0h1m1 0h1m1 0h1m2 0h1m1 0h2m2 0h2m2 0h1m2 0h1m2 0h1m2 0h1m1 0h1m2 0h3m1 0h1m7 0h4m1 0h1m3 0h1m3 0h2m4 0h1m3 0h4m1 0h1m4 0h1m1 0h1m1 0h2m1 0h1m4 0h1m1 0h6m2 0h1m3 0h3m4 0h3m1 0h1M5 20.5h2m1 0h5m1 0h5m1 0h4m1 0h1m1 0h4m2 0h2m2 0h1m4 0h2m1 0h2m1 0h5m2 0h1m1 0h1m1 0h2m1 0h1m1 0h2m2 0h1m1 0h2m2 0h4m1 0h1m2 0h2m1 0h1m2 0h1m1 0h4m3 0h1m2 0h4m1 0h2m2 0h1m1 0h2m1 0h2M4 21.5h3m2 0h1m1 0h2m3 0h2m4 0h3m3 0h1m2 0h1m3 0h2m2 0h1m6 0h1m6 0h1m3 0h3m1 0h1m1 0h2m2 0h2m3 0h1m2 0h3m3 0h1m1 0h1m2 0h6m1 0h1m1 0h3m1 0h4m3 0h5m1 0h5m3 0h1M4 22.5h1m1 0h1m3 0h3m1 0h3m1 0h1m3 0h7m4 0h1m2 0h2m1 0h1m1 0h1m2 0h6m3 0h1m1 0h2m1 0h1m1 0h1m4 0h1m1 0h2m1 0h1m1 0h2m1 0h1m1 0h1m1 0h2m1 0h1m1 0h2m5 0h4m1 0h1m2 0h1m1 0h1m2 0h6m3 0h1m3 0h3M4 23.5h3m1 0h1m2 0h1m1 0h1m1 0h2m2 0h1m2 0h3m1 0h1m1 0h3m4 0h1m3 0h5m5 0h6m2 0h1m1 0h7m7 0h2m1 0h1m1 0h1m4 0h1m3 0h4m2 0h1m1 0h1m1 0h1m2 0h1m1 0h1m3 0h1m2 0h3m3 0h1m1 0h3M4 24.5h1m1 0h3m1 0h3m1 0h1m1 0h1m3 0h1m1 0h1m2 0h3m1 0h3m1 0h2m2 0h1m3 0h1m1 0h1m1 0h1m1 0h5m2 0h1m1 0h1m1 0h2m2 0h1m2 0h3m3 0h1m3 0h1m1 0h1m2 0h2m3 0h1m1 0h3m1 0h1m9 0h4m1 0h3m2 0h2m1 0h1m2 0h1m1 0h1M5 25.5h2m5 0h2m1 0h2m3 0h2m1 0h4m1 0h2m3 0h1m1 0h1m1 0h3m4 0h1m1 0h2m1 0h1m2 0h2m2 0h1m2 0h1m2 0h1m1 0h2m2 0h1m1 0h2m1 0h1m2 0h1m1 0h3m2 0h1m1 0h4m2 0h1m1 0h5m2 0h1m3 0h4m1 0h1m4 0h1m1 0h3m1 0h1M4 26.5h1m1 0h2m1 0h4m2 0h2m2 0h1m1 0h2m1 0h2m2 0h1m2 0h2m1 0h1m2 0h1m3 0h1m2 0h4m8 0h3m1 0h1m2 0h1m5 0h2m1 0h1m4 0h1m1 0h1m1 0h2m1 0h3m2 0h1m1 0h4m1 0h1m2 0h1m1 0h1m1 0h5m4 0h4m3 0h1M4 27.5h1m3 0h1m2 0h1m3 0h2m2 0h2m1 0h1m1 0h1m2 0h2m1 0h2m1 0h3m2 0h6m1 0h3m4 0h1m1 0h2m1 0h1m1 0h6m1 0h1m2 0h1m6 0h1m1 0h1m2 0h1m1 0h1m1 0h1m1 0h4m4 0h1m1 0h1m1 0h2m1 0h2m1 0h1m1 0h1m10 0h1M7 28.5h1m2 0h4m1 0h1m1 0h4m2 0h2m2 0h1m1 0h2m3 0h1m1 0h2m2 0h1m8 0h2m1 0h1m3 0h3m1 0h5m1 0h2m1 0h1m1 0h1m2 0h1m1 0h1m2 0h1m3 0h2m2 0h3m1 0h3m6 0h1m1 0h2m6 0h1m1 0h4m1 0h1m1 0h2M6 29.5h1m5 0h6m2 0h1m1 0h2m1 0h1m1 0h2m3 0h3m1 0h2m3 0h1m1 0h1m1 0h1m1 0h2m3 0h2m1 0h5m4 0h3m1 0h2m2 0h7m2 0h2m4 0h1m3 0h1m1 0h3m1 0h1m7 0h1m1 0h2m3 0h2m2 0h2m1 0h1M4 30.5h2m2 0h3m3 0h2m2 0h1m1 0h3m1 0h3m2 0h1m4 0h1m1 0h2m1 0h1m4 0h1m1 0h1m1 0h2m1 0h1m1 0h1m1 0h4m2 0h1m8 0h3m2 0h1m1 0h1m2 0h3m1 0h3m5 0h3m1 0h2m5 0h2m1 0h1m1 0h2m1 0h2m1 0h1m3 0h2M5 31.5h4m2 0h3m1 0h1m4 0h1m1 0h8m3 0h1m1 0h1m1 0h2m1 0h3m2 0h1m4 0h1m1 0h2m1 0h1m3 0h8m2 0h1m1 0h1m1 0h4m1 0h1m4 0h1m1 0h1m2 0h4m3 0h1m2 0h3m1 0h1m2 0h1m1 0h1m1 0h3m3 0h2m1 0h1M4 32.5h1m3 0h1m1 0h1m1 0h2m1 0h1m1 0h1m2 0h2m3 0h5m2 0h1m1 0h1m2 0h1m2 0h1m1 0h2m1 0h3m1 0h2m1 0h4m2 0h1m1 0h3m1 0h4m3 0h1m2 0h4m1 0h3m1 0h1m1 0h1m1 0h1m1 0h1m1 0h1m1 0h2m3 0h1m2 0h1m1 0h1m5 0h1m1 0h4m1 0h2m1 0h1M4 33.5h3m1 0h2m1 0h1m5 0h2m3 0h2m2 0h1m4 0h1m3 0h2m1 0h2m3 0h2m1 0h3m2 0h1m2 0h1m3 0h2m5 0h2m3 0h2m4 0h1m1 0h1m1 0h2m1 0h4m1 0h2m4 0h3m2 0h1m4 0h5m1 0h4m1 0h6M6 34.5h1m1 0h10m1 0h4m1 0h6m1 0h9m1 0h1m2 0h1m1 0h3m2 0h1m3 0h4m1 0h6m2 0h5m2 0h3m2 0h3m1 0h7m1 0h1m1 0h1m1 0h1m2 0h3m1 0h2m1 0h4m2 0h5m1 0h2M7 35.5h2m3 0h1m6 0h1m2 0h2m4 0h1m1 0h2m1 0h2m3 0h1m1 0h2m5 0h1m1 0h2m1 0h1m1 0h1m5 0h1m3 0h4m5 0h6m4 0h1m1 0h2m3 0h1m4 0h1m1 0h6m4 0h1m1 0h4m3 0h4M5 36.5h1m2 0h1m1 0h1m1 0h3m4 0h1m2 0h1m2 0h1m2 0h1m5 0h1m1 0h1m1 0h5m3 0h1m1 0h1m1 0h1m3 0h2m1 0h2m1 0h1m1 0h1m1 0h1m2 0h1m1 0h1m1 0h4m1 0h3m1 0h1m1 0h2m1 0h2m1 0h1m1 0h1m2 0h1m3 0h6m1 0h3m1 0h1m1 0h3m1 0h1m1 0h4M6 37.5h1m1 0h1m3 0h2m1 0h3m1 0h2m2 0h4m1 0h1m1 0h5m3 0h2m1 0h1m4 0h1m4 0h2m5 0h3m3 0h3m1 0h1m2 0h1m1 0h1m2 0h4m2 0h3m1 0h1m3 0h1m3 0h2m5 0h1m1 0h1m2 0h3m3 0h1m3 0h1m1 0h3M5 38.5h1m1 0h6m2 0h2m2 0h3m1 0h4m2 0h1m1 0h2m1 0h5m1 0h1m3 0h3m1 0h1m2 0h1m3 0h11m2 0h4m4 0h2m2 0h11m3 0h4m5 0h4m1 0h1m2 0h6m1 0h1M6 39.5h1m4 0h1m1 0h1m2 0h6m1 0h1m4 0h1m1 0h1m2 0h1m5 0h1m2 0h2m1 0h1m1 0h1m1 0h2m1 0h1m1 0h2m3 0h1m6 0h1m4 0h1m2 0h5m2 0h1m1 0h1m2 0h2m1 0h1m5 0h1m1 0h2m1 0h1m1 0h1m2 0h3m1 0h2m1 0h2m1 0h1m1 0h2M4 40.5h2m2 0h4m1 0h2m1 0h2m1 0h1m1 0h2m2 0h1m1 0h1m1 0h1m1 0h1m2 0h5m3 0h1m2 0h1m1 0h3m1 0h1m2 0h1m2 0h2m1 0h3m1 0h6m3 0h6m4 0h2m1 0h1m1 0h4m1 0h4m5 0h5m6 0h1m3 0h1m1 0h2M4 41.5h1m1 0h1m1 0h2m1 0h5m1 0h3m4 0h1m1 0h2m1 0h1m1 0h2m3 0h2m1 0h1m1 0h2m2 0h1m4 0h1m2 0h1m2 0h4m3 0h2m1 0h2m1 0h4m2 0h2m1 0h2m1 0h1m4 0h1m1 0h3m1 0h3m2 0h1m1 0h1m1 0h2m1 0h3m1 0h1m4 0h2m2 0h2m1 0h1M5 42.5h6m1 0h1m2 0h1m4 0h1m4 0h2m1 0h2m1 0h2m2 0h2m1 0h1m4 0h4m1 0h1m2 0h1m4 0h4m1 0h1m2 0h1m2 0h5m3 0h1m1 0h1m1 0h2m1 0h4m1 0h1m5 0h2m1 0h1m6 0h1m1 0h4m2 0h2m1 0h3m1 0h1M4 43.5h5m2 0h2m1 0h4m2 0h1m2 0h1m1 0h1m4 0h1m2 0h1m2 0h1m2 0h4m2 0h1m1 0h1m1 0h4m1 0h2m1 0h1m1 0h2m4 0h2m4 0h1m1 0h2m1 0h4m1 0h1m1 0h1m2 0h2m1 0h1m3 0h1m1 0h1m2 0h5m4 0h1m2 0h1m1 0h1m4 0h4M4 44.5h2m1 0h5m4 0h3m4 0h2m3 0h3m2 0h1m1 0h1m2 0h2m1 0h2m1 0h1m1 0h1m4 0h2m1 0h2m1 0h2m2 0h7m1 0h3m2 0h1m1 0h1m2 0h5m1 0h1m2 0h1m1 0h2m1 0h2m3 0h2m1 0h1m3 0h1m1 0h2m6 0h1m3 0h1M5 45.5h2m1 0h2m3 0h2m1 0h2m1 0h1m4 0h2m4 0h1m1 0h1m1 0h2m1 0h1m1 0h1m2 0h1m6 0h2m2 0h1m2 0h2m1 0h2m2 0h1m2 0h3m1 0h6m1 0h1m1 0h1m4 0h4m1 0h4m1 0h1m2 0h1m2 0h2m1 0h1m4 0h2m1 0h1m1 0h2m2 0h4M5 46.5h2m1 0h5m2 0h1m6 0h1m1 0h1m1 0h2m1 0h4m2 0h1m2 0h1m2 0h1m3 0h2m1 0h1m4 0h1m1 0h2m1 0h2m4 0h2m1 0h1m2 0h1m1 0h1m2 0h1m4 0h1m1 0h11m1 0h4m1 0h1m1 0h1m2 0h1m1 0h1m1 0h2m1 0h3m2 0h3M7 47.5h1m1 0h1m3 0h1m2 0h1m4 0h3m1 0h1m1 0h1m5 0h1m1 0h2m2 0h5m1 0h1m3 0h7m3 0h2m5 0h1m4 0h1m1 0h2m1 0h1m1 0h1m4 0h1m2 0h1m2 0h1m8 0h3m1 0h1m2 0h1m1 0h1m1 0h2m4 0h1m1 0h4M4 48.5h1m1 0h7m1 0h2m4 0h2m2 0h2m1 0h1m1 0h1m3 0h1m1 0h1m2 0h4m3 0h4m1 0h2m3 0h3m3 0h4m2 0h5m3 0h1m1 0h2m1 0h3m1 0h1m1 0h3m1 0h2m2 0h3m1 0h1m3 0h3m1 0h1m1 0h1m2 0h1m4 0h1m3 0h1M5 49.5h2m2 0h1m2 0h3m2 0h1m1 0h1m1 0h1m2 0h1m2 0h1m1 0h2m1 0h2m2 0h2m1 0h3m1 0h1m2 0h1m2 0h3m1 0h1m1 0h1m2 0h1m1 0h1m2 0h5m1 0h3m1 0h1m1 0h3m1 0h1m2 0h3m1 0h1m1 0h2m2 0h2m1 0h1m3 0h1m3 0h1m3 0h2m5 0h7M4 50.5h1m1 0h1m1 0h1m1 0h1m1 0h1m1 0h1m1 0h4m1 0h2m1 0h2m1 0h1m1 0h1m1 0h2m1 0h3m2 0h1m1 0h1m1 0h2m1 0h1m1 0h1m2 0h1m1 0h1m1 0h4m1 0h1m4 0h1m1 0h4m1 0h1m2 0h1m3 0h7m1 0h2m1 0h6m1 0h1m3 0h1m1 0h2m1 0h1m1 0h1m2 0h1m2 0h1m3 0h2M7 51.5h2m2 0h1m1 0h1m1 0h1m1 0h1m2 0h1m1 0h3m2 0h2m1 0h2m1 0h5m1 0h4m2 0h1m3 0h6m2 0h3m3 0h1m1 0h2m2 0h1m1 0h1m1 0h1m1 0h2m1 0h2m2 0h2m5 0h1m3 0h1m1 0h1m1 0h4m1 0h2m3 0h1m1 0h2m3 0h1m2 0h2M4 52.5h2m3 0h2m1 0h1m1 0h2m4 0h2m1 0h2m2 0h1m3 0h1m1 0h3m1 0h2m1 0h4m4 0h1m2 0h3m2 0h1m3 0h2m2 0h2m2 0h3m1 0h2m1 0h2m1 0h1m2 0h1m2 0h5m1 0h2m1 0h2m3 0h1m1 0h3m2 0h1m5 0h1m1 0h1m1 0h1m3 0h1M4 53.5h3m2 0h1m2 0h3m4 0h1m1 0h2m1 0h1m1 0h3m2 0h2m2 0h1m6 0h1m2 0h1m5 0h3m1 0h3m1 0h1m1 0h2m1 0h1m2 0h12m1 0h2m1 0h2m2 0h2m1 0h1m1 0h2m1 0h2m1 0h3m2 0h1m2 0h2m3 0h4m1 0h1m1 0h1m1 0h1M9 54.5h4m1 0h1m1 0h1m2 0h2m1 0h2m5 0h1m1 0h2m1 0h2m1 0h1m1 0h1m4 0h5m2 0h1m1 0h1m1 0h2m1 0h2m1 0h1m1 0h1m1 0h1m1 0h4m1 0h1m7 0h3m1 0h6m1 0h2m1 0h1m1 0h1m2 0h1m1 0h1m1 0h2m1 0h1m1 0h2m1 0h1m1 0h2m3 0h2M7 55.5h2m4 0h3m2 0h3m2 0h1m1 0h3m7 0h2m3 0h3m4 0h1m2 0h5m2 0h1m1 0h1m3 0h1m1 0h3m3 0h1m1 0h7m1 0h1m1 0h1m2 0h2m1 0h1m3 0h1m1 0h1m1 0h2m1 0h1m1 0h2m3 0h1m1 0h2m2 0h2m3 0h2M4 56.5h1m3 0h5m2 0h1m3 0h2m2 0h7m10 0h1m2 0h2m2 0h1m1 0h2m1 0h1m1 0h1m3 0h1m1 0h1m1 0h1m1 0h1m2 0h1m1 0h2m3 0h2m1 0h1m1 0h1m1 0h8m1 0h4m1 0h3m2 0h2m1 0h1m1 0h1m1 0h4m2 0h1m1 0h1m1 0h1m1 0h2M6 57.5h1m2 0h1m3 0h2m2 0h4m1 0h1m2 0h3m1 0h1m3 0h1m1 0h2m1 0h2m1 0h1m3 0h2m1 0h1m2 0h2m2 0h4m1 0h1m2 0h1m2 0h1m2 0h2m2 0h1m1 0h3m2 0h4m1 0h4m3 0h1m1 0h3m1 0h2m3 0h3m1 0h3m2 0h1m1 0h7M4 58.5h1m1 0h1m1 0h1m1 0h1m1 0h1m4 0h3m1 0h2m1 0h1m4 0h1m1 0h1m4 0h1m6 0h2m1 0h1m1 0h2m3 0h1m1 0h2m1 0h4m1 0h3m1 0h7m3 0h1m2 0h6m2 0h1m1 0h3m1 0h3m2 0h1m1 0h1m1 0h4m1 0h1m2 0h1m1 0h1m2 0h1m1 0h2M5 59.5h3m1 0h1m1 0h5m1 0h1m1 0h1m3 0h1m2 0h2m1 0h2m1 0h4m1 0h1m2 0h2m3 0h1m3 0h5m1 0h1m4 0h1m2 0h1m2 0h1m7 0h1m1 0h1m1 0h2m1 0h1m4 0h1m2 0h1m3 0h1m1 0h1m1 0h2m1 0h3m7 0h1m1 0h1m4 0h3M4 60.5h1m1 0h8m2 0h1m2 0h1m3 0h1m5 0h10m1 0h2m2 0h2m3 0h1m1 0h5m2 0h1m1 0h8m4 0h1m1 0h3m1 0h4m1 0h8m1 0h1m1 0h2m2 0h2m1 0h2m1 0h1m1 0h3m3 0h6M6 61.5h3m3 0h5m1 0h1m1 0h3m3 0h2m1 0h2m1 0h1m1 0h1m3 0h1m1 0h1m2 0h1m1 0h1m1 0h1m2 0h1m1 0h2m6 0h1m3 0h4m1 0h1m10 0h1m1 0h1m1 0h3m3 0h2m1 0h2m1 0h2m1 0h8m4 0h2m3 0h3m1 0h1M5 62.5h1m1 0h2m1 0h1m1 0h2m1 0h1m4 0h2m4 0h1m1 0h2m2 0h1m1 0h1m1 0h1m1 0h2m1 0h1m1 0h6m6 0h2m1 0h1m1 0h1m1 0h1m1 0h2m1 0h2m1 0h4m1 0h1m1 0h1m1 0h4m1 0h1m1 0h1m1 0h1m1 0h1m1 0h5m2 0h1m1 0h1m1 0h6m3 0h1m1 0h1m1 0h1m1 0h2M5 63.5h1m2 0h1m3 0h3m6 0h2m1 0h1m2 0h1m2 0h1m2 0h2m3 0h1m1 0h4m3 0h1m2 0h1m1 0h1m1 0h2m4 0h1m3 0h1m1 0h2m1 0h1m1 0h1m1 0h4m1 0h1m6 0h2m3 0h2m1 0h1m1 0h1m1 0h2m1 0h1m2 0h1m1 0h1m1 0h1m1 0h2m1 0h1m3 0h3M8 64.5h8m2 0h2m3 0h3m1 0h1m1 0h2m1 0h1m1 0h6m1 0h2m2 0h1m1 0h1m4 0h1m1 0h2m1 0h1m1 0h6m1 0h2m1 0h4m1 0h2m1 0h1m5 0h1m2 0h5m3 0h1m1 0h1m1 0h3m5 0h4m1 0h6m2 0h2M4 65.5h2m6 0h1m2 0h2m1 0h2m2 0h2m1 0h4m1 0h2m2 0h2m1 0h2m5 0h1m4 0h1m1 0h1m1 0h5m1 0h4m1 0h2m3 0h1m4 0h1m1 0h3m1 0h5m2 0h2m1 0h3m1 0h3m1 0h3m3 0h2m1 0h2m1 0h4m1 0h1m1 0h1m1 0h2M4 66.5h2m1 0h2m1 0h1m1 0h2m3 0h1m1 0h3m2 0h1m3 0h2m1 0h2m5 0h1m5 0h6m6 0h4m1 0h1m1 0h1m1 0h1m2 0h1m1 0h3m4 0h1m2 0h3m1 0h2m2 0h2m1 0h4m1 0h1m4 0h1m2 0h3m1 0h1m2 0h1m1 0h4M7 67.5h1m1 0h1m4 0h1m2 0h4m2 0h3m1 0h1m2 0h1m3 0h10m1 0h1m1 0h1m1 0h2m1 0h3m5 0h1m5 0h2m1 0h1m1 0h1m1 0h4m1 0h1m2 0h1m1 0h1m3 0h1m1 0h1m5 0h1m1 0h7m5 0h3m1 0h7M5 68.5h2m3 0h2m2 0h1m5 0h2m1 0h1m2 0h1m1 0h2m1 0h1m3 0h1m3 0h3m1 0h1m1 0h3m2 0h3m2 0h2m1 0h1m2 0h1m3 0h2m2 0h1m4 0h1m1 0h3m2 0h1m7 0h1m1 0h1m2 0h2m3 0h5m2 0h1m3 0h1m2 0h2m2 0h1m1 0h2M12 69.5h4m1 0h1m1 0h2m1 0h1m1 0h2m7 0h3m1 0h4m3 0h3m2 0h1m4 0h1m1 0h1m3 0h3m1 0h2m1 0h2m1 0h2m3 0h3m1 0h1m3 0h2m3 0h1m1 0h1m1 0h1m2 0h1m6 0h1m1 0h1m4 0h1m1 0h3m1 0h2m1 0h1m1 0h1M5 70.5h1m4 0h2m1 0h2m2 0h2m2 0h2m1 0h1m1 0h1m1 0h2m2 0h1m4 0h1m3 0h1m1 0h7m3 0h1m1 0h2m1 0h2m2 0h1m1 0h1m2 0h2m1 0h1m1 0h2m3 0h1m2 0h3m1 0h3m2 0h2m1 0h1m1 0h1m1 0h2m1 0h1m1 0h1m1 0h7m1 0h2m1 0h1m1 0h1m1 0h3M5 71.5h1m1 0h1m1 0h1m1 0h3m1 0h2m2 0h1m1 0h1m1 0h2m3 0h2m3 0h2m1 0h1m1 0h6m6 0h5m5 0h2m4 0h2m1 0h1m1 0h1m2 0h3m1 0h2m3 0h1m2 0h1m1 0h1m1 0h1m4 0h1m1 0h7m1 0h1m4 0h4m1 0h1m1 0h2M4 72.5h4m2 0h3m1 0h2m4 0h1m1 0h1m6 0h6m1 0h1m2 0h1m1 0h4m2 0h2m1 0h2m1 0h3m1 0h5m3 0h2m2 0h3m4 0h1m2 0h1m1 0h3m5 0h1m4 0h2m1 0h1m1 0h1m3 0h6m1 0h2m1 0h1m5 0h1M5 73.5h3m1 0h1m2 0h3m1 0h1m3 0h2m1 0h2m2 0h2m3 0h4m2 0h2m1 0h1m1 0h1m1 0h1m2 0h1m3 0h1m4 0h2m1 0h1m1 0h3m2 0h2m1 0h4m2 0h2m2 0h6m2 0h1m1 0h1m1 0h2m2 0h1m1 0h2m1 0h1m1 0h1m2 0h1m1 0h1m2 0h3m2 0h1m3 0h1M8 74.5h1m1 0h2m1 0h3m1 0h6m2 0h1m1 0h1m1 0h1m3 0h1m1 0h1m5 0h1m1 0h2m1 0h1m1 0h2m1 0h1m1 0h1m3 0h3m2 0h1m1 0h2m1 0h2m1 0h1m1 0h1m2 0h1m1 0h1m2 0h3m1 0h1m1 0h5m1 0h5m2 0h1m1 0h1m1 0h4m1 0h2m1 0h4m1 0h4M4 75.5h1m2 0h3m1 0h3m3 0h1m1 0h1m1 0h1m5 0h1m1 0h1m3 0h2m1 0h1m3 0h1m1 0h2m1 0h1m3 0h2m1 0h1m1 0h1m2 0h1m1 0h2m2 0h3m1 0h1m5 0h6m4 0h1m2 0h1m8 0h1m1 0h6m6 0h4m1 0h1m1 0h1m1 0h2M5 76.5h3m2 0h4m2 0h2m4 0h2m1 0h2m1 0h1m1 0h2m2 0h1m1 0h1m3 0h1m1 0h1m2 0h3m1 0h2m1 0h3m2 0h1m1 0h3m1 0h1m1 0h1m4 0h2m1 0h1m3 0h2m2 0h1m1 0h3m1 0h3m1 0h3m4 0h3m4 0h3m2 0h1m2 0h1m5 0h1M7 77.5h1m4 0h1m3 0h1m4 0h2m5 0h3m3 0h2m1 0h3m1 0h2m1 0h1m2 0h2m1 0h1m2 0h1m3 0h2m1 0h7m1 0h3m1 0h4m1 0h2m3 0h1m2 0h1m1 0h3m4 0h1m1 0h1m2 0h2m1 0h4m1 0h3m1 0h3m1 0h2m2 0h2M4 78.5h4m1 0h2m1 0h4m3 0h2m2 0h3m1 0h2m3 0h1m5 0h1m2 0h1m2 0h1m1 0h2m5 0h1m2 0h4m2 0h3m3 0h1m1 0h1m1 0h1m3 0h2m2 0h5m1 0h4m2 0h1m1 0h1m1 0h1m4 0h1m1 0h2m1 0h1m1 0h1m4 0h2m1 0h1m1 0h2M4 79.5h3m2 0h1m1 0h2m3 0h2m3 0h3m1 0h7m1 0h1m3 0h2m1 0h1m1 0h1m2 0h1m1 0h1m2 0h1m1 0h3m4 0h1m1 0h1m2 0h4m1 0h1m1 0h1m1 0h4m1 0h2m6 0h1m2 0h3m1 0h1m1 0h1m1 0h4m1 0h1m2 0h1m1 0h1m4 0h8M4 80.5h5m1 0h1m1 0h1m1 0h1m5 0h1m1 0h2m1 0h1m2 0h1m1 0h2m3 0h2m1 0h1m1 0h3m2 0h1m4 0h1m3 0h2m2 0h1m1 0h1m6 0h1m1 0h1m6 0h2m1 0h1m2 0h1m1 0h1m10 0h3m1 0h2m1 0h1m2 0h1m4 0h2m5 0h2M4 81.5h1m2 0h3m2 0h3m2 0h3m1 0h2m2 0h1m3 0h1m2 0h2m1 0h1m1 0h1m2 0h2m4 0h2m1 0h1m2 0h2m1 0h4m1 0h7m1 0h1m2 0h1m1 0h1m1 0h3m3 0h1m3 0h1m1 0h4m1 0h1m1 0h1m3 0h4m1 0h2m1 0h8m1 0h1m1 0h1m2 0h1M4 82.5h8m1 0h1m1 0h3m3 0h1m1 0h1m1 0h1m1 0h3m2 0h1m1 0h1m1 0h2m1 0h1m3 0h2m1 0h3m2 0h1m4 0h4m2 0h1m2 0h1m1 0h2m1 0h3m2 0h1m1 0h1m1 0h10m2 0h6m2 0h3m1 0h2m1 0h1m1 0h1m3 0h2m2 0h4M4 83.5h1m2 0h2m2 0h1m4 0h2m2 0h5m3 0h1m1 0h2m1 0h1m1 0h3m2 0h1m1 0h1m2 0h1m1 0h1m1 0h2m1 0h3m2 0h1m1 0h1m1 0h1m1 0h1m2 0h2m5 0h2m1 0h1m1 0h1m2 0h1m3 0h4m1 0h1m4 0h1m1 0h6m2 0h1m1 0h1m1 0h3m2 0h3m1 0h3M4 84.5h1m1 0h2m1 0h2m1 0h1m2 0h2m2 0h1m2 0h2m1 0h1m1 0h3m1 0h2m3 0h2m2 0h4m1 0h3m2 0h2m4 0h4m5 0h4m1 0h3m2 0h1m4 0h1m1 0h1m5 0h2m1 0h1m1 0h1m1 0h1m2 0h1m1 0h4m1 0h1m1 0h1m12 0h1M4 85.5h6m3 0h2m1 0h1m1 0h3m7 0h3m2 0h2m3 0h1m7 0h1m2 0h1m4 0h2m1 0h2m1 0h7m2 0h2m1 0h2m4 0h1m1 0h2m2 0h1m2 0h2m1 0h1m3 0h1m4 0h2m2 0h1m1 0h3m3 0h2m2 0h1m2 0h1m1 0h1M4 86.5h2m1 0h7m1 0h1m1 0h1m1 0h1m1 0h1m3 0h1m2 0h2m1 0h11m2 0h1m1 0h1m1 0h1m2 0h3m3 0h2m1 0h6m1 0h1m1 0h2m1 0h2m5 0h2m1 0h1m1 0h1m1 0h11m4 0h1m1 0h4m1 0h1m3 0h6M6 87.5h3m3 0h1m5 0h1m1 0h2m5 0h2m1 0h1m3 0h1m3 0h1m1 0h2m1 0h1m1 0h1m1 0h1m1 0h4m1 0h1m2 0h1m2 0h1m3 0h1m1 0h1m2 0h1m3 0h4m1 0h1m2 0h1m1 0h1m2 0h1m3 0h2m3 0h1m1 0h5m1 0h1m1 0h2m3 0h3m3 0h1m1 0h2M4 88.5h5m1 0h1m1 0h1m1 0h1m1 0h2m3 0h4m2 0h2m3 0h1m1 0h1m1 0h1m1 0h4m1 0h1m2 0h1m2 0h1m2 0h4m2 0h1m1 0h1m1 0h1m1 0h1m2 0h1m1 0h3m2 0h1m1 0h2m1 0h1m1 0h6m1 0h1m1 0h1m5 0h1m1 0h2m1 0h1m4 0h1m5 0h1m1 0h1m1 0h2m2 0h1M4 89.5h5m3 0h5m1 0h1m3 0h3m2 0h3m1 0h1m2 0h1m3 0h1m1 0h3m1 0h1m2 0h2m1 0h2m3 0h3m2 0h1m3 0h1m4 0h4m1 0h3m4 0h1m4 0h1m3 0h1m1 0h1m1 0h3m2 0h1m1 0h9m2 0h1m3 0h1m2 0h2M4 90.5h3m1 0h5m2 0h6m1 0h2m1 0h1m2 0h2m2 0h1m1 0h5m5 0h1m1 0h1m1 0h1m4 0h1m1 0h10m2 0h6m7 0h1m1 0h1m1 0h7m1 0h5m6 0h6m2 0h8M6 91.5h1m1 0h2m2 0h1m2 0h2m2 0h7m1 0h5m4 0h1m1 0h5m7 0h3m1 0h2m1 0h1m4 0h6m5 0h2m1 0h1m1 0h2m1 0h1m1 0h1m1 0h1m5 0h1m1 0h1m1 0h1m1 0h7m6 0h5m2 0h4M6 92.5h2m2 0h9m2 0h1m1 0h2m1 0h1m1 0h1m2 0h1m1 0h1m3 0h1m2 0h2m1 0h4m1 0h2m2 0h1m1 0h3m1 0h2m1 0h1m1 0h3m1 0h1m2 0h4m2 0h4m1 0h1m2 0h1m1 0h1m4 0h1m2 0h1m2 0h3m1 0h3m2 0h2m2 0h1m1 0h1m1 0h3m2 0h1M5 93.5h1m3 0h1m1 0h1m1 0h2m2 0h3m2 0h4m1 0h3m3 0h1m2 0h2m1 0h2m3 0h5m3 0h4m18 0h3m2 0h2m1 0h1m2 0h1m1 0h1m4 0h1m4 0h1m2 0h1m1 0h1m1 0h1m1 0h1m1 0h1m1 0h1m2 0h1m3 0h1m1 0h1M4 94.5h1m1 0h1m3 0h1m1 0h1m4 0h2m2 0h6m5 0h1m1 0h1m3 0h1m2 0h1m1 0h1m1 0h2m1 0h1m4 0h1m2 0h1m1 0h1m1 0h1m1 0h4m2 0h1m1 0h1m1 0h1m2 0h1m1 0h1m1 0h1m2 0h1m1 0h1m2 0h2m1 0h3m1 0h3m2 0h1m1 0h1m1 0h2m1 0h1m1 0h1m2 0h2m4 0h3M4 95.5h3m1 0h1m2 0h1m1 0h1m3 0h2m2 0h1m3 0h1m2 0h2m1 0h1m2 0h1m3 0h3m1 0h1m1 0h2m1 0h1m2 0h6m6 0h2m7 0h1m1 0h2m1 0h3m2 0h1m3 0h4m11 0h1m1 0h1m2 0h1m3 0h4m1 0h1m2 0h2M5 96.5h4m1 0h2m1 0h1m1 0h1m1 0h2m1 0h2m1 0h1m3 0h2m1 0h2m1 0h1m4 0h3m2 0h3m2 0h2m1 0h3m2 0h1m2 0h1m1 0h1m2 0h1m3 0h3m4 0h1m1 0h5m1 0h1m2 0h1m2 0h1m1 0h1m1 0h4m1 0h4m2 0h1m5 0h1m2 0h1m1 0h2m2 0h2M4 97.5h1m1 0h1m1 0h1m3 0h3m1 0h2m2 0h1m4 0h4m6 0h1m3 0h3m2 0h1m12 0h1m2 0h1m2 0h1m2 0h1m1 0h1m1 0h3m6 0h1m1 0h1m2 0h3m2 0h1m1 0h1m2 0h1m1 0h2m1 0h1m1 0h1m1 0h5m1 0h2m1 0h1m5 0h2M9 98.5h2m2 0h1m2 0h1m4 0h2m1 0h1m1 0h1m1 0h2m1 0h4m2 0h3m1 0h1m2 0h1m1 0h1m1 0h1m4 0h1m2 0h1m1 0h1m1 0h3m1 0h2m2 0h3m1 0h1m4 0h1m3 0h2m1 0h3m1 0h5m1 0h1m1 0h1m2 0h1m4 0h1m1 0h3m4 0h1m3 0h3M6 99.5h3m4 0h2m2 0h2m1 0h1m5 0h2m1 0h2m4 0h1m3 0h4m3 0h1m3 0h3m1 0h2m1 0h1m2 0h1m3 0h1m1 0h2m2 0h2m1 0h5m3 0h1m3 0h1m5 0h1m7 0h5m1 0h1m1 0h1m2 0h5m1 0h4M5 100.5h3m2 0h1m1 0h2m1 0h1m2 0h2m2 0h1m1 0h1m5 0h2m1 0h1m3 0h1m1 0h5m2 0h4m3 0h1m3 0h4m3 0h1m1 0h1m3 0h5m1 0h2m1 0h1m1 0h2m3 0h1m1 0h2m4 0h2m2 0h2m1 0h3m1 0h1m3 0h2m5 0h2m1 0h1M5 101.5h1m7 0h2m3 0h4m3 0h1m1 0h1m1 0h1m6 0h2m1 0h3m3 0h1m3 0h2m1 0h1m2 0h3m2 0h1m2 0h1m3 0h3m1 0h2m2 0h4m2 0h1m2 0h1m1 0h2m1 0h1m1 0h2m2 0h4m1 0h4m2 0h1m1 0h2m1 0h2m5 0h1m1 0h1M4 102.5h1m3 0h5m1 0h2m3 0h4m3 0h1m4 0h2m1 0h2m1 0h2m2 0h1m1 0h2m1 0h1m1 0h1m2 0h1m3 0h2m1 0h1m2 0h1m1 0h2m3 0h3m1 0h1m6 0h2m1 0h1m1 0h3m1 0h5m1 0h1m1 0h2m3 0h1m1 0h2m1 0h1m1 0h2m1 0h2m3 0h1m1 0h2M4 103.5h2m1 0h1m1 0h1m2 0h1m1 0h1m1 0h4m1 0h2m1 0h1m2 0h2m1 0h1m3 0h2m4 0h1m1 0h1m4 0h1m1 0h4m1 0h1m2 0h1m2 0h1m5 0h1m2 0h1m4 0h6m3 0h1m1 0h1m1 0h1m1 0h1m1 0h1m3 0h1m1 0h2m1 0h3m2 0h1m1 0h1m1 0h3m2 0h3m1 0h2M4 104.5h1m1 0h2m2 0h1m1 0h1m1 0h1m4 0h2m1 0h2m1 0h2m1 0h2m1 0h1m1 0h1m1 0h3m3 0h6m1 0h4m1 0h3m1 0h1m2 0h1m1 0h2m1 0h1m1 0h3m2 0h3m6 0h4m1 0h1m4 0h1m2 0h3m1 0h2m1 0h1m2 0h3m7 0h1m4 0h1M7 105.5h1m1 0h1m2 0h1m3 0h1m1 0h1m1 0h1m1 0h13m1 0h1m2 0h2m1 0h1m1 0h3m5 0h2m4 0h1m6 0h1m2 0h1m2 0h3m1 0h1m1 0h1m1 0h1m2 0h1m1 0h4m1 0h1m3 0h1m4 0h3m2 0h1m2 0h2m1 0h1m1 0h2M4 106.5h3m3 0h1m1 0h1m1 0h1m5 0h4m1 0h1m1 0h1m5 0h2m2 0h3m1 0h4m1 0h4m6 0h1m1 0h1m1 0h6m2 0h3m1 0h1m4 0h1m1 0h5m1 0h6m1 0h3m1 0h1m2 0h1m1 0h1m2 0h6m1 0h2m2 0h1m2 0h2M7 107.5h2m4 0h1m1 0h1m1 0h1m7 0h4m1 0h2m3 0h1m2 0h1m1 0h1m6 0h1m1 0h4m1 0h1m2 0h1m1 0h3m1 0h1m2 0h1m2 0h1m6 0h4m1 0h3m1 0h1m1 0h1m5 0h3m1 0h2m1 0h1m1 0h2m1 0h1m1 0h1m1 0h2m3 0h1m1 0h1m1 0h1M4 108.5h1m1 0h5m4 0h1m2 0h2m2 0h7m4 0h2m1 0h2m1 0h1m1 0h1m3 0h1m1 0h1m3 0h1m1 0h3m1 0h1m2 0h1m1 0h1m1 0h4m1 0h2m3 0h1m1 0h2m3 0h2m3 0h4m2 0h1m5 0h2m6 0h1m3 0h1m1 0h2m1 0h2M4 109.5h1m4 0h1m1 0h4m1 0h1m1 0h1m2 0h2m1 0h1m2 0h5m3 0h3m6 0h1m2 0h1m1 0h1m2 0h1m2 0h2m9 0h2m1 0h1m2 0h2m3 0h1m2 0h1m1 0h3m1 0h2m1 0h1m2 0h6m3 0h2m1 0h1m10 0h1m4 0h1M4 110.5h1m1 0h1m1 0h3m2 0h3m2 0h1m5 0h2m3 0h1m1 0h2m2 0h1m2 0h4m3 0h2m1 0h1m2 0h1m1 0h1m1 0h4m1 0h3m1 0h2m2 0h1m1 0h1m1 0h1m4 0h1m1 0h5m2 0h9m1 0h1m4 0h1m4 0h1m1 0h1m4 0h1m3 0h2M6 111.5h1m2 0h1m2 0h2m2 0h2m1 0h1m4 0h2m1 0h4m3 0h3m1 0h3m1 0h1m2 0h1m1 0h1m1 0h2m1 0h2m3 0h1m2 0h1m2 0h4m2 0h1m1 0h1m3 0h3m5 0h1m1 0h2m2 0h3m1 0h3m1 0h5m5 0h1m1 0h3m2 0h1m1 0h4M5 112.5h2m3 0h1m3 0h1m2 0h1m4 0h2m1 0h5m1 0h2m1 0h5m1 0h2m1 0h1m1 0h2m3 0h2m1 0h1m1 0h1m1 0h9m1 0h1m1 0h4m1 0h1m2 0h1m4 0h1m3 0h5m1 0h2m1 0h2m1 0h1m1 0h1m2 0h1m2 0h1m1 0h3m1 0h5m3 0h1M12 113.5h5m3 0h1m1 0h1m1 0h1m1 0h2m1 0h2m1 0h3m3 0h2m6 0h4m3 0h2m2 0h1m2 0h1m3 0h1m3 0h1m1 0h6m1 0h1m4 0h2m2 0h1m3 0h2m3 0h4m1 0h1m2 0h3m1 0h1m4 0h1m3 0h5M4 114.5h7m1 0h1m1 0h2m2 0h1m2 0h1m4 0h2m1 0h1m4 0h1m1 0h1m1 0h2m3 0h4m1 0h2m5 0h2m1 0h1m1 0h1m1 0h1m1 0h1m2 0h2m1 0h1m1 0h1m2 0h1m1 0h1m1 0h4m1 0h1m1 0h1m1 0h1m1 0h1m1 0h1m1 0h3m4 0h1m1 0h6m2 0h2m1 0h1m1 0h1m1 0h1M4 115.5h1m5 0h1m2 0h1m2 0h1m2 0h2m4 0h1m2 0h1m1 0h1m2 0h2m3 0h6m3 0h1m2 0h1m1 0h3m5 0h1m3 0h1m1 0h2m3 0h1m2 0h5m2 0h1m4 0h1m3 0h2m1 0h1m1 0h1m1 0h4m1 0h2m5 0h4m3 0h1m1 0h1M4 116.5h1m1 0h3m1 0h1m1 0h1m1 0h1m1 0h1m2 0h1m1 0h2m2 0h2m2 0h3m1 0h6m2 0h2m2 0h2m1 0h1m2 0h3m3 0h1m2 0h9m2 0h2m4 0h1m1 0h1m1 0h2m1 0h1m1 0h8m2 0h2m1 0h3m1 0h2m2 0h10m2 0h1M4 117.5h1m1 0h3m1 0h1m1 0h2m1 0h1m6 0h2m1 0h5m4 0h1m4 0h2m2 0h2m1 0h2m1 0h1m1 0h1m5 0h1m1 0h3m2 0h1m2 0h1m2 0h6m1 0h1m2 0h2m4 0h1m1 0h1m3 0h1m2 0h3m1 0h1m5 0h2m1 0h2m6 0h3M4 118.5h1m1 0h3m1 0h1m1 0h1m1 0h6m1 0h4m1 0h2m3 0h2m1 0h2m1 0h1m3 0h1m2 0h1m1 0h2m3 0h1m4 0h3m1 0h2m1 0h1m1 0h1m1 0h4m1 0h2m3 0h1m1 0h6m4 0h1m2 0h3m1 0h1m4 0h1m2 0h4m3 0h5m1 0h2M4 119.5h1m5 0h1m1 0h1m1 0h1m2 0h3m2 0h1m1 0h1m1 0h1m1 0h1m1 0h1m2 0h1m1 0h1m1 0h7m1 0h1m1 0h1m3 0h2m1 0h1m4 0h1m1 0h2m1 0h2m1 0h1m1 0h3m2 0h1m1 0h1m1 0h1m7 0h3m1 0h2m3 0h1m1 0h4m1 0h1m3 0h2m5 0h1m1 0h1m2 0h1M4 120.5h7m1 0h3m2 0h1m2 0h8m2 0h1m2 0h2m3 0h2m4 0h3m3 0h2m1 0h3m1 0h3m3 0h1m2 0h2m3 0h1m1 0h2m4 0h1m1 0h1m4 0h4m2 0h1m4 0h2m1 0h2m2 0h2m4 0h1m1 0h3m1 0h1m2 0h1"/></svg>
