<?xml version="1.0" encoding="utf-8"?><!DOCTYPE svg PUBLIC "-//W3C//DTD SVG 1.1//EN" "http://www.w3.org/Graphics/SVG/1.1/DTD/svg11.dtd"><svg xmlns="http://www.w3.org/2000/svg" viewBox="0 0 65 65" shape-rendering="crispEdges"><path fill="#ffffff" d="M0 0h65v65H0z"/><path stroke="#000000" d="M4 4.5h7m3 0h1m1 0h1m1 0h2m3 0h1m2 0h3m2 0h1m1 0h3m1 0h1m2 0h2m2 0h4m2 0h2m2 0h7M4 5.5h1m5 0h1m1 0h1m1 0h1m1 0h2m1 0h1m1 0h1m8 0h3m3 0h1m1 0h1m1 0h1m1 0h1m2 0h1m3 0h1m1 0h1m2 0h1m5 0h1M4 6.5h1m1 0h3m1 0h1m2 0h1m2 0h2m3 0h1m1 0h1m3 0h1m4 0h1m3 0h3m3 0h5m2 0h3m2 0h1m1 0h3m1 0h1M4 7.5h1m1 0h3m1 0h1m1 0h1m1 0h1m2 0h1m3 0h2m4 0h3m1 0h1m1 0h3m3 0h2m4 0h3m1 0h1m1 0h1m2 0h1m1 0h3m1 0h1M4 8.5h1m1 0h3m1 0h1m2 0h2m1 0h1m1 0h2m3 0h4m1 0h1m1 0h5m1 0h2m3 0h1m1 0h1m1 0h2m4 0h1m2 0h1m1 0h3m1 0h1M4 9.5h1m5 0h1m1 0h3m7 0h1m1 0h2m1 0h2m1 0h1m3 0h1m3 0h1m1 0h4m1 0h1m1 0h1m1 0h2m3 0h1m5 0h1M4 10.5h7m1 0h1m1 0h1m1 0h1m1 0h1m1 0h1m1 0h1m1 0h1m1 0h1m1 0h1m1 0h1m1 0h1m1 0h1m1 0h1m1 0h1m1 0h1m1 0h1m1 0h1m1 0h1m1 0h1m1 0h1m1 0h1m1 0h7M13 11.5h2m3 0h2m2 0h5m1 0h1m1 0h1m3 0h2m1 0h1m2 0h2m2 0h2m1 0h3m2 0h1M4 12.5h5m1 0h3m2 0h1m4 0h1m1 0h3m2 0h1m1 0h6m4 0h1m6 0h1m2 0h2m2 0h1m1 0h1m1 0h1m1 0h1M7 13.5h2m6 0h1m2 0h2m5 0h4m2 0h5m1 0h1m5 0h1m2 0h3m3 0h2m1 0h1m1 0h2m1 0h1M4 14.5h8m3 0h1m1 0h3m2 0h2m2 0h6m7 0h1m1 0h3m4 0h3m1 0h1m1 0h1m1 0h1m1 0h2M5 15.5h2m1 0h2m3 0h2m3 0h1m1 0h4m1 0h2m1 0h2m2 0h2m2 0h1m1 0h1m3 0h1m1 0h2m2 0h1m2 0h3m1 0h4M5 16.5h4m1 0h11m1 0h1m1 0h1m1 0h2m2 0h1m4 0h1m2 0h1m1 0h1m4 0h1m1 0h1m1 0h1m1 0h1m1 0h1m5 0h1M6 17.5h1m1 0h2m3 0h4m4 0h3m1 0h1m1 0h2m2 0h1m1 0h1m1 0h2m4 0h1m3 0h4m2 0h2m2 0h1m1 0h2m1 0h1M6 18.5h1m2 0h3m2 0h1m1 0h1m1 0h2m1 0h1m2 0h1m2 0h1m4 0h1m1 0h2m1 0h2m1 0h3m3 0h2m1 0h2m1 0h1m1 0h1m2 0h3M6 19.5h1m1 0h2m1 0h6m1 0h2m1 0h1m3 0h2m1 0h1m2 0h1m1 0h1m2 0h2m1 0h1m2 0h1m1 0h1m1 0h1m1 0h3m2 0h8M4 20.5h3m1 0h1m1 0h1m1 0h1m2 0h3m2 0h3m1 0h1m2 0h1m1 0h2m1 0h2m1 0h1m1 0h1m2 0h2m3 0h1m1 0h1m1 0h1m1 0h1m3 0h1M7 21.5h1m1 0h1m1 0h2m2 0h2m6 0h1m1 0h2m1 0h1m1 0h6m1 0h1m3 0h1m1 0h2m1 0h1m1 0h2m1 0h3m6 0h1M4 22.5h1m1 0h2m2 0h2m2 0h1m1 0h1m2 0h5m2 0h1m1 0h1m3 0h1m2 0h1m1 0h2m1 0h1m1 0h1m1 0h1m2 0h1m1 0h2m1 0h5m1 0h2M7 23.5h2m2 0h2m4 0h1m2 0h1m1 0h3m2 0h2m2 0h4m1 0h3m2 0h1m1 0h4m2 0h1m1 0h3m1 0h4m1 0h1M5 24.5h1m1 0h2m1 0h1m4 0h2m2 0h1m1 0h3m4 0h1m1 0h1m2 0h1m1 0h1m2 0h3m2 0h1m2 0h2m1 0h1m1 0h1m1 0h1M4 25.5h1m1 0h2m3 0h2m1 0h4m2 0h2m3 0h3m1 0h3m1 0h4m3 0h1m4 0h3m3 0h3m1 0h1m4 0h1M4 26.5h1m3 0h1m1 0h4m1 0h1m3 0h3m1 0h1m1 0h1m4 0h1m4 0h2m1 0h2m2 0h1m3 0h1m3 0h7m1 0h2M6 27.5h1m4 0h2m2 0h3m2 0h1m1 0h1m3 0h2m1 0h2m1 0h2m4 0h5m1 0h2m1 0h2m1 0h1m1 0h2m1 0h2m1 0h3M5 28.5h2m1 0h4m1 0h2m2 0h1m1 0h2m1 0h4m5 0h1m3 0h4m1 0h1m1 0h1m2 0h1m4 0h2m1 0h1m5 0h1M7 29.5h3m1 0h1m1 0h3m1 0h1m1 0h1m1 0h1m3 0h4m4 0h2m1 0h1m1 0h3m4 0h3m3 0h3m4 0h3M4 30.5h1m2 0h10m2 0h1m1 0h1m3 0h1m3 0h9m2 0h1m2 0h3m2 0h3m1 0h8M4 31.5h5m3 0h2m3 0h3m3 0h2m2 0h1m1 0h2m3 0h1m1 0h1m4 0h1m1 0h2m1 0h1m1 0h1m1 0h3m3 0h4M5 32.5h1m1 0h2m1 0h1m1 0h3m2 0h2m1 0h2m2 0h2m4 0h1m1 0h1m1 0h2m1 0h1m2 0h1m4 0h1m1 0h1m3 0h2m1 0h1m1 0h2M5 33.5h1m2 0h1m3 0h1m1 0h1m7 0h2m3 0h4m3 0h2m4 0h2m1 0h1m1 0h2m1 0h1m2 0h2m3 0h1m1 0h1M6 34.5h1m1 0h5m3 0h1m1 0h2m2 0h1m1 0h2m1 0h1m1 0h7m2 0h3m1 0h1m2 0h6m1 0h8M5 35.5h2m2 0h1m1 0h2m1 0h1m4 0h1m1 0h1m1 0h2m2 0h1m2 0h1m1 0h3m1 0h1m1 0h2m1 0h1m1 0h2m1 0h4m1 0h1m2 0h1m2 0h2M7 36.5h2m1 0h5m4 0h6m2 0h1m4 0h1m1 0h2m1 0h1m2 0h1m2 0h1m3 0h1m1 0h2m3 0h1m1 0h2m1 0h1M5 37.5h3m3 0h1m4 0h2m3 0h1m4 0h3m2 0h1m1 0h2m4 0h3m4 0h1m1 0h1m2 0h1m1 0h1m5 0h2M5 38.5h1m1 0h2m1 0h3m1 0h2m2 0h1m4 0h1m4 0h2m1 0h2m1 0h1m1 0h4m1 0h2m4 0h5m3 0h5M5 39.5h1m1 0h2m2 0h2m1 0h1m1 0h3m2 0h3m4 0h2m2 0h3m1 0h1m2 0h1m2 0h2m2 0h1m1 0h1m2 0h1m1 0h8M7 40.5h1m1 0h4m2 0h4m3 0h1m4 0h2m4 0h2m2 0h1m2 0h1m4 0h1m3 0h1m3 0h1m1 0h2M6 41.5h3m2 0h2m4 0h1m1 0h1m3 0h4m1 0h1m1 0h2m2 0h1m2 0h1m5 0h1m1 0h2m2 0h1m1 0h2m2 0h1m1 0h1m2 0h1M4 42.5h2m1 0h4m1 0h2m4 0h1m2 0h2m1 0h6m3 0h7m2 0h2m3 0h2m1 0h1m1 0h1m6 0h2M4 43.5h1m2 0h1m4 0h1m4 0h3m2 0h4m2 0h1m2 0h1m1 0h1m1 0h1m1 0h1m2 0h5m1 0h1m1 0h4m2 0h5M4 44.5h4m1 0h3m1 0h1m1 0h1m2 0h1m1 0h1m1 0h1m1 0h2m6 0h1m6 0h1m2 0h1m2 0h1m4 0h1m1 0h1m1 0h5M4 45.5h1m1 0h2m3 0h2m1 0h4m1 0h1m1 0h1m4 0h1m1 0h1m1 0h1m3 0h2m1 0h1m3 0h6m4 0h1m3 0h1m1 0h2m1 0h1M5 46.5h1m1 0h1m1 0h3m1 0h2m3 0h2m2 0h2m2 0h1m1 0h1m4 0h2m4 0h1m3 0h1m4 0h3m1 0h2m1 0h1m2 0h2M4 47.5h2m2 0h2m3 0h1m1 0h4m1 0h4m1 0h4m1 0h2m1 0h1m2 0h3m2 0h2m1 0h3m1 0h1m1 0h2m1 0h2m2 0h3M5 48.5h4m1 0h1m1 0h1m2 0h2m1 0h1m1 0h1m1 0h1m1 0h1m1 0h1m2 0h1m2 0h1m1 0h2m3 0h3m4 0h1m2 0h1m3 0h3m3 0h2M6 49.5h3m7 0h1m1 0h1m2 0h2m2 0h1m1 0h2m2 0h1m2 0h1m1 0h2m3 0h1m1 0h5m1 0h1m3 0h1m3 0h2m1 0h1M4 50.5h1m1 0h1m2 0h5m2 0h1m1 0h1m2 0h2m2 0h1m2 0h4m1 0h2m3 0h1m1 0h1m1 0h1m1 0h4m1 0h2m1 0h2m4 0h2M4 51.5h5m3 0h1m2 0h1m1 0h1m1 0h1m1 0h3m1 0h5m6 0h1m2 0h1m1 0h1m1 0h2m3 0h2m1 0h2m1 0h1m2 0h2m1 0h1M10 52.5h3m2 0h1m1 0h1m1 0h4m1 0h2m1 0h1m1 0h7m4 0h1m4 0h3m2 0h1m1 0h5m2 0h2M12 53.5h1m1 0h2m7 0h1m1 0h4m1 0h1m3 0h1m1 0h2m2 0h2m2 0h1m1 0h2m4 0h1m3 0h2m2 0h1M4 54.5h7m1 0h2m7 0h1m4 0h3m1 0h1m1 0h1m1 0h5m3 0h4m3 0h2m1 0h1m1 0h1m1 0h1m1 0h2M4 55.5h1m5 0h1m2 0h1m3 0h1m2 0h1m4 0h2m3 0h1m3 0h3m1 0h2m5 0h1m1 0h2m1 0h3m3 0h3m1 0h1M4 56.5h1m1 0h3m1 0h1m1 0h4m2 0h2m1 0h3m4 0h7m2 0h2m1 0h1m1 0h1m2 0h1m6 0h5m2 0h2M4 57.5h1m1 0h3m1 0h1m1 0h2m1 0h1m1 0h1m2 0h1m5 0h2m2 0h1m1 0h2m2 0h1m3 0h1m4 0h2m4 0h1m2 0h1m1 0h1m1 0h1M4 58.5h1m1 0h3m1 0h1m1 0h1m1 0h2m2 0h3m1 0h2m1 0h2m2 0h3m3 0h5m1 0h4m2 0h9m2 0h1M4 59.5h1m5 0h1m1 0h1m2 0h2m3 0h1m1 0h1m4 0h1m5 0h1m4 0h3m3 0h1m1 0h1m1 0h1m4 0h1m3 0h2M4 60.5h7m1 0h1m1 0h1m1 0h1m1 0h3m1 0h4m1 0h1m1 0h1m1 0h2m1 0h5m1 0h2m3 0h1m5 0h1m1 0h3m2 0h2"/></svg>
